<?xml version="1.0" encoding="UTF-8"?> <svg xmlns="http://www.w3.org/2000/svg" id="b020838d-57f3-46b5-903e-7616e41b3f2a" data-name="Capa 1" viewBox="0 0 512 320.8"><path d="M155.75,311.89l13.2,9L240.73,224s46.73-75.12,93.14-88c22.57-6.27,50.46-5.12,83.52,12.14l51.49,32.19L512,117.83,457.94,84.37S391,33.52,324.7,87.58c0,0-17.37,12.88-28.32,29.61Z" transform="translate(0 -0.1)" style="fill:#ff9b00"></path><path d="M210.14,289.68l11.58,7.73s13.78-19.2,29-36.13c9.4-10.45,36.43-33.18,54-38.32,23.39-6.85,61.18-6,110.11,35.18l43.13-66.35s-68.77-45-114.24-37.88a132.18,132.18,0,0,0-21.15,5.93c-8.75,3.48-21.65,10.38-35.27,23.78-9,8.85-57.29,78.32-57.29,78.32Z" transform="translate(0 -0.1)" style="fill:#0077c8"></path><path d="M356.25,9.11l-13.2-9L280.37,84.75s-44.88,67.12-70.23,84.93c-25.83,18.15-64.53,29.87-115.53,3.24L43.12,140.73,0,203.17l54.06,33.47S121,287.48,187.3,233.42c0,0,17.37-12.88,28.32-29.61l31.92-44.2Z" transform="translate(0 -0.1)" style="fill:#ff9b00"></path><path d="M301.86,31.32l-11.58-7.73S272.79,48,255.44,66c-7.57,7.87-33.78,30.08-56.91,34.08-23.59,4.08-58.12-.82-101.34-37.21L54.06,129.21s70.43,46.13,115.87,37.6a161.55,161.55,0,0,0,16-4.33c9.23-3.16,25.51-10.83,42.44-28.8,7.84-8.33,42.09-58.44,42.09-58.44Z" transform="translate(0 -0.1)" style="fill:#0077c8"></path></svg> 